# File created by Blade
# Date/Time:  Thu Sep 25 18:48:06 2014
# Frame Rate: 120.000 fps
#------------------------------------------------------
:FULLY-SPECIFIED
:DEGREES
625
root 0.013996 32.776739 -5.708947 101.911796 7.311292 -1.369791
Spine 59.183507 2.602887 3.377488
Head -22.035088 -0.186998 17.167379
LeftShoulder -19.840502 18.437571 21.428379
LeftArm -80.726577 24.234965 -107.451856
LeftForeArm 12.044875 -0.000000 24.226770
LeftHand -15.074986 -0.000000 -68.473604
LeftHandThumb1 -26.253704 0.000000 33.147579
RightShoulder -26.708761 -29.251530 -32.941796
RightArm -55.119456 -20.206950 90.606129
RightForeArm -25.070793 0.000000 5.109727
RightHand 1.886112 -0.000000 71.618019
RightHandThumb1 -24.326973 -0.000000 -32.862282
LeftUpLeg -110.637592 2.458342 -10.013198
LeftLeg -3.174211 -0.000000 0.000000
LeftFoot 7.811318 0.428071 -12.189420
LeftToeBase 13.227511 -0.000000 -0.000000
RightUpLeg -109.018010 1.128705 15.209664
RightLeg 1.335745 -0.000000 -0.000000
RightFoot 3.827979 -3.952961 3.072743
RightToeBase 1.056369 -0.000000 -0.000000
626
root 0.014005 32.777916 -5.698453 101.930496 7.268148 -1.361784
Spine 59.181508 2.607748 3.385011
Head -22.007528 -0.183069 17.163234
LeftShoulder -19.818267 18.413232 21.433050
LeftArm -80.837944 24.252208 -107.575288
LeftForeArm 11.937065 0.000000 24.205646
LeftHand -15.224783 -0.000000 -68.441756
LeftHandThumb1 -26.253704 0.000000 33.147579
RightShoulder -26.681140 -29.228455 -32.945959
RightArm -55.227863 -20.231037 90.660531
RightForeArm -25.037096 -0.000000 5.153059
RightHand 1.861027 0.000000 71.594296
RightHandThumb1 -24.326973 -0.000000 -32.862282
LeftUpLeg -110.612457 2.481111 -9.982261
LeftLeg -3.203334 -0.000000 0.000000
LeftFoot 7.802458 0.471474 -12.220516
LeftToeBase 13.209991 -0.000000 -0.000000
RightUpLeg -109.023444 1.125253 15.192660
RightLeg 1.333674 -0.000000 -0.000000
RightFoot 3.819031 -3.937699 3.066224
RightToeBase 1.054734 -0.000000 -0.000000
627
root 0.012598 32.779513 -5.687693 101.947030 7.226985 -1.362307
Spine 59.175284 2.615554 3.397002
Head -21.989623 -0.257139 17.098225
LeftShoulder -19.819433 18.490999 21.422780
LeftArm -80.770605 24.281591 -107.503765
LeftForeArm 11.987042 -0.000000 24.218669
LeftHand -15.131988 0.000000 -68.370515
LeftHandThumb1 -26.253704 0.000000 33.147579
RightShoulder -26.639447 -29.173563 -32.994607
RightArm -55.369835 -20.257152 90.747240
RightForeArm -24.989364 -0.000000 5.170571
RightHand 1.867636 -0.000000 71.575295
RightHandThumb1 -24.326973 -0.000000 -32.862282
LeftUpLeg -110.598479 2.497693 -9.985881
LeftLeg -3.215241 -0.000000 0.000000
LeftFoot 7.776483 0.497389 -12.264862
LeftToeBase 13.261943 -0.000000 -0.000000
RightUpLeg -109.023538 1.128732 15.162487
RightLeg 1.328651 -0.000000 -0.000000
RightFoot 3.828226 -3.930241 3.013964
RightToeBase 0.993134 -0.000000 -0.000000
628
root 0.012333 32.780716 -5.676282 101.943406 7.191953 -1.352809
Spine 59.212584 2.550728 3.392724
Head -22.016081 -0.311524 16.898819
LeftShoulder -19.890120 18.585563 21.329505
LeftArm -80.709897 24.343938 -107.461371
LeftForeArm 11.988440 -0.000000 24.264288
LeftHand -15.162437 -0.000000 -68.280648
LeftHandThumb1 -26.253704 0.000000 33.147579
RightShoulder -26.617002 -29.181361 -33.074837
RightArm -55.327650 -20.233978 90.698906
RightForeArm -25.051520 -0.000000 5.171463
RightHand 1.875146 -0.000000 71.574357
RightHandThumb1 -24.326973 -0.000000 -32.862282
LeftUpLeg -110.560675 2.496996 -9.997484
LeftLeg -3.230973 -0.000000 0.000000
LeftFoot 7.765852 0.515148 -12.250725
LeftToeBase 13.225558 -0.000000 -0.000000
RightUpLeg -109.007646 1.120982 15.160616
RightLeg 1.335379 -0.000000 -0.000000
RightFoot 3.797636 -3.899169 3.019643
RightToeBase 1.016393 -0.000000 -0.000000
629
root 0.012593 32.781985 -5.665381 101.947774 7.162782 -1.342343
Spine 59.235402 2.523389 3.405349
Head -22.065169 -0.371216 16.827064
LeftShoulder -19.922337 18.566868 21.298364
LeftArm -80.745018 24.372341 -107.499606
LeftForeArm 11.995877 0.000000 24.258003
LeftHand -15.130598 -0.000000 -68.401041
LeftHandThumb1 -26.253704 0.000000 33.147579
RightShoulder -26.624179 -29.194396 -33.116241
RightArm -55.281062 -20.232429 90.669279
RightForeArm -25.132538 -0.000000 5.166079
RightHand 1.924434 -0.000000 71.547390
RightHandThumb1 -24.326973 -0.000000 -32.862282
LeftUpLeg -110.538992 2.503702 -9.979289
LeftLeg -3.225008 -0.000000 0.000000
LeftFoot 7.736342 0.546386 -12.263292
LeftToeBase 13.233339 -0.000000 -0.000000
RightUpLeg -109.004931 1.121639 15.179825
RightLeg 1.349738 -0.000000 -0.000000
RightFoot 3.779314 -3.862678 2.981957
RightToeBase 1.013514 -0.000000 -0.000000
